<mxfile host="app.diagrams.net" modified="2023-05-15T04:03:25.958Z" agent="Mozilla/5.0 (Macintosh; Intel Mac OS X 10_15_7) AppleWebKit/605.1.15 (KHTML, like Gecko) Version/16.4 Safari/605.1.15" etag="vzvl3N3fv4SkVhurYSME" version="21.3.0" type="device">
  <diagram name="Page-1" id="bECe3Eg6-PeYgq75NxlP">
    <mxGraphModel dx="1020" dy="681" grid="1" gridSize="10" guides="1" tooltips="1" connect="1" arrows="1" fold="1" page="1" pageScale="1" pageWidth="850" pageHeight="1100" math="0" shadow="0">
      <root>
        <mxCell id="0" />
        <mxCell id="1" parent="0" />
        <mxCell id="XAhplBCr2Z9c6SAEFLta-8" value="" style="edgeStyle=orthogonalEdgeStyle;rounded=0;orthogonalLoop=1;jettySize=auto;html=1;" edge="1" parent="1" source="XAhplBCr2Z9c6SAEFLta-2" target="XAhplBCr2Z9c6SAEFLta-3">
          <mxGeometry relative="1" as="geometry" />
        </mxCell>
        <mxCell id="XAhplBCr2Z9c6SAEFLta-2" value="User Input" style="rounded=1;whiteSpace=wrap;html=1;fillColor=#ffe6cc;strokeColor=#d79b00;" vertex="1" parent="1">
          <mxGeometry x="235" y="30" width="120" height="60" as="geometry" />
        </mxCell>
        <mxCell id="XAhplBCr2Z9c6SAEFLta-9" value="" style="edgeStyle=orthogonalEdgeStyle;rounded=0;orthogonalLoop=1;jettySize=auto;html=1;" edge="1" parent="1" source="XAhplBCr2Z9c6SAEFLta-3" target="XAhplBCr2Z9c6SAEFLta-4">
          <mxGeometry relative="1" as="geometry" />
        </mxCell>
        <mxCell id="XAhplBCr2Z9c6SAEFLta-3" value="GPT Sentece Creator" style="rounded=0;whiteSpace=wrap;html=1;fillColor=#dae8fc;strokeColor=#6c8ebf;" vertex="1" parent="1">
          <mxGeometry x="235" y="140" width="120" height="60" as="geometry" />
        </mxCell>
        <mxCell id="XAhplBCr2Z9c6SAEFLta-10" value="&lt;font color=&quot;#006633&quot;&gt;If not exist&lt;/font&gt;" style="edgeStyle=orthogonalEdgeStyle;rounded=0;orthogonalLoop=1;jettySize=auto;html=1;" edge="1" parent="1" source="XAhplBCr2Z9c6SAEFLta-4" target="XAhplBCr2Z9c6SAEFLta-5">
          <mxGeometry relative="1" as="geometry">
            <mxPoint as="offset" />
          </mxGeometry>
        </mxCell>
        <mxCell id="XAhplBCr2Z9c6SAEFLta-16" style="edgeStyle=orthogonalEdgeStyle;rounded=0;orthogonalLoop=1;jettySize=auto;html=1;exitX=1;exitY=0.5;exitDx=0;exitDy=0;entryX=1;entryY=0.5;entryDx=0;entryDy=0;" edge="1" parent="1" source="XAhplBCr2Z9c6SAEFLta-4" target="XAhplBCr2Z9c6SAEFLta-3">
          <mxGeometry relative="1" as="geometry">
            <mxPoint x="380" y="45" as="targetPoint" />
            <Array as="points">
              <mxPoint x="390" y="280" />
              <mxPoint x="390" y="170" />
            </Array>
          </mxGeometry>
        </mxCell>
        <mxCell id="XAhplBCr2Z9c6SAEFLta-17" value="&lt;font color=&quot;#ff3333&quot;&gt;If exist&lt;/font&gt;" style="edgeLabel;html=1;align=center;verticalAlign=middle;resizable=0;points=[];" vertex="1" connectable="0" parent="XAhplBCr2Z9c6SAEFLta-16">
          <mxGeometry x="0.0268" y="1" relative="1" as="geometry">
            <mxPoint as="offset" />
          </mxGeometry>
        </mxCell>
        <mxCell id="XAhplBCr2Z9c6SAEFLta-4" value="Database Check" style="rounded=0;whiteSpace=wrap;html=1;fillColor=#dae8fc;strokeColor=#6c8ebf;" vertex="1" parent="1">
          <mxGeometry x="235" y="250" width="120" height="60" as="geometry" />
        </mxCell>
        <mxCell id="XAhplBCr2Z9c6SAEFLta-11" value="" style="edgeStyle=orthogonalEdgeStyle;rounded=0;orthogonalLoop=1;jettySize=auto;html=1;" edge="1" parent="1" source="XAhplBCr2Z9c6SAEFLta-5" target="XAhplBCr2Z9c6SAEFLta-6">
          <mxGeometry relative="1" as="geometry" />
        </mxCell>
        <mxCell id="XAhplBCr2Z9c6SAEFLta-15" value="&lt;font color=&quot;#006633&quot;&gt;If correct&lt;/font&gt;" style="edgeLabel;html=1;align=center;verticalAlign=middle;resizable=0;points=[];" vertex="1" connectable="0" parent="XAhplBCr2Z9c6SAEFLta-11">
          <mxGeometry x="-0.2067" y="1" relative="1" as="geometry">
            <mxPoint as="offset" />
          </mxGeometry>
        </mxCell>
        <mxCell id="XAhplBCr2Z9c6SAEFLta-18" value="&lt;font color=&quot;#ff3333&quot;&gt;If incorrect&lt;/font&gt;" style="edgeStyle=orthogonalEdgeStyle;rounded=0;orthogonalLoop=1;jettySize=auto;html=1;exitX=1;exitY=0.5;exitDx=0;exitDy=0;entryX=1;entryY=0.5;entryDx=0;entryDy=0;" edge="1" parent="1" source="XAhplBCr2Z9c6SAEFLta-5" target="XAhplBCr2Z9c6SAEFLta-3">
          <mxGeometry relative="1" as="geometry">
            <Array as="points">
              <mxPoint x="430" y="390" />
              <mxPoint x="430" y="170" />
            </Array>
          </mxGeometry>
        </mxCell>
        <mxCell id="XAhplBCr2Z9c6SAEFLta-5" value="GPT Idiom Classfier" style="rounded=0;whiteSpace=wrap;html=1;fillColor=#dae8fc;strokeColor=#6c8ebf;" vertex="1" parent="1">
          <mxGeometry x="235" y="360" width="120" height="60" as="geometry" />
        </mxCell>
        <mxCell id="XAhplBCr2Z9c6SAEFLta-12" value="" style="edgeStyle=orthogonalEdgeStyle;rounded=0;orthogonalLoop=1;jettySize=auto;html=1;" edge="1" parent="1" source="XAhplBCr2Z9c6SAEFLta-6" target="XAhplBCr2Z9c6SAEFLta-7">
          <mxGeometry relative="1" as="geometry" />
        </mxCell>
        <mxCell id="XAhplBCr2Z9c6SAEFLta-6" value="Database Writing" style="rounded=0;whiteSpace=wrap;html=1;fillColor=#dae8fc;strokeColor=#6c8ebf;" vertex="1" parent="1">
          <mxGeometry x="235" y="470" width="120" height="60" as="geometry" />
        </mxCell>
        <mxCell id="XAhplBCr2Z9c6SAEFLta-7" value="User Output" style="rounded=1;whiteSpace=wrap;html=1;fillColor=#ffe6cc;strokeColor=#d79b00;" vertex="1" parent="1">
          <mxGeometry x="235" y="580" width="120" height="60" as="geometry" />
        </mxCell>
        <mxCell id="XAhplBCr2Z9c6SAEFLta-27" value="" style="edgeStyle=orthogonalEdgeStyle;rounded=0;orthogonalLoop=1;jettySize=auto;html=1;entryX=0;entryY=0.5;entryDx=0;entryDy=0;" edge="1" parent="1" source="XAhplBCr2Z9c6SAEFLta-23" target="XAhplBCr2Z9c6SAEFLta-25">
          <mxGeometry relative="1" as="geometry">
            <mxPoint x="625" y="339.9999999999999" as="targetPoint" />
          </mxGeometry>
        </mxCell>
        <mxCell id="XAhplBCr2Z9c6SAEFLta-29" value="For every 100 new instance" style="edgeLabel;html=1;align=center;verticalAlign=middle;resizable=0;points=[];" vertex="1" connectable="0" parent="XAhplBCr2Z9c6SAEFLta-27">
          <mxGeometry x="0.0534" relative="1" as="geometry">
            <mxPoint as="offset" />
          </mxGeometry>
        </mxCell>
        <mxCell id="XAhplBCr2Z9c6SAEFLta-23" value="" style="rounded=0;whiteSpace=wrap;html=1;strokeWidth=2;gradientColor=none;fillColor=none;" vertex="1" parent="1">
          <mxGeometry x="170" y="20" width="290" height="640" as="geometry" />
        </mxCell>
        <mxCell id="XAhplBCr2Z9c6SAEFLta-25" value="Human Control" style="rounded=0;whiteSpace=wrap;html=1;fillColor=#e1d5e7;strokeColor=#9673a6;" vertex="1" parent="1">
          <mxGeometry x="640" y="310" width="120" height="60" as="geometry" />
        </mxCell>
      </root>
    </mxGraphModel>
  </diagram>
</mxfile>
